# xmcd
#
# Track frame offsets:
#	150
#	17334
#	32147
#	48123
#	67342
#	83308
#	105438
#	130448
#	149252
#	171397
#	193604
#	208473
#	227967
#	242444
#	263380
#	280424
#	299143
#	315507
#	329497
#	341293
#
# Disc length: 4769 seconds
#
# Revision: 2
# Processed by: cddbd v1.5.2PL0 Copyright (c) Steve Scherf et al.
# Submitted via: audiograbber 1.83.01
#
DISCID=29129f14
DTITLE=Various - Soul Love - CD 3
DYEAR=2010
DGENRE=Soul
TTITLE0=Usher - Nice and Slow [1997]
TTITLE1=R Kelly - Ignition [2002]
TTITLE2=Natasha Bedingfield - Soulmate [2007]
TTITLE3=Fugees - Fu-Gee-La [1996]
TTITLE4=Tlc - Waterfalls [1994]
TTITLE5=Monica - For You I Will [1998]
TTITLE6=Michelle Gayle - I'll Find You [1994]
TTITLE7=Jon B - They Don't Know [1997]
TTITLE8=Tyrese - How You Gonna Act Like That [2002]
TTITLE9=Joe - Good Girls [1997]
TTITLE10=Eamon - All Over Love [2004]
TTITLE11=Ginuwine - Tell Me You Wanna [1996]
TTITLE12=Brownstone - If You Love Me [1994]
TTITLE13=Swv - I'm So Into You [1993]
TTITLE14=Haywoode - Roses [1985]
TTITLE15=Billy Ocean - Love Is Forever [1986]
TTITLE16=Billy Griffin - Hold Me Tighter In The Rain [1982]
TTITLE17=George Duke - I Love You More [1979]
TTITLE18=Three Degrees - When Will I See You Again [1973]
TTITLE19=Heatwave - Always And Forever [1977]
EXTD=Sony Music 886976452025
EXTT0=
EXTT1=
EXTT2=
EXTT3=
EXTT4=
EXTT5=
EXTT6=
EXTT7=
EXTT8=
EXTT9=
EXTT10=
EXTT11=
EXTT12=
EXTT13=
EXTT14=
EXTT15=
EXTT16=
EXTT17=
EXTT18=
EXTT19=
PLAYORDER=
